<svg width="750" height="750" viewBox="0 0 750 750" fill="none" xmlns="http://www.w3.org/2000/svg">
<path d="M308.32 132.293C309.289 119.829 317.719 109.729 328.876 105.925C328.222 103.036 327.534 100.129 327.772 97.0282C329.072 80.3023 343.739 67.796 360.505 69.0923C370.396 69.8549 378.359 75.5065 383.33 83.234C389.44 76.3623 398.21 72.0071 408.101 72.7697C423.677 73.9728 435.149 86.8266 435.693 102.044C437.826 101.739 439.891 101.078 442.143 101.256C458.918 102.553 471.443 117.152 470.143 133.878C468.92 149.629 455.748 161.22 440.24 161.483C437.265 176.345 424.043 187.207 408.492 186.004C400.92 185.42 394.437 181.861 389.474 176.862C383.364 183.361 374.832 187.436 365.221 186.691C360.879 186.36 356.851 185.106 353.273 183.157L353.256 183.166C350.274 181.31 346.016 181.166 342.617 182.513C342.617 182.513 331.324 192.164 342.566 207.45C342.566 207.45 321.577 198.731 325.333 180.361C328.273 166.025 318.518 157.382 318.518 157.382L318.552 157.365C311.643 151.273 307.555 142.164 308.32 132.293Z" fill="black"/>
<path fill-rule="evenodd" clip-rule="evenodd" d="M353.025 681C488.901 681 599.05 570.852 599.05 434.976C599.05 422.626 589.034 412.611 576.684 412.611H129.366C117.007 412.611 107 422.626 107 434.976C107 570.852 217.149 681 353.025 681Z" fill="black"/>
<path fill-rule="evenodd" clip-rule="evenodd" d="M150.95 389.087C150.95 253.212 261.099 143.063 396.975 143.063C532.843 143.063 643 253.212 643 389.087C643 401.437 632.984 411.453 620.634 411.453H173.316C160.958 411.453 150.95 401.437 150.95 389.087ZM505.669 259.28C504.322 258.905 502.967 258.709 501.603 258.709C500.231 258.709 498.875 258.905 497.537 259.28C496.19 259.663 494.886 260.233 493.624 260.983C492.362 261.732 491.159 262.652 490.024 263.742C488.881 264.832 487.83 266.067 486.865 267.455C485.891 268.844 485.027 270.351 484.273 271.978C483.51 273.605 482.867 275.325 482.342 277.139C481.816 278.953 481.427 280.818 481.156 282.743C480.893 284.659 480.758 286.601 480.758 288.568C480.758 290.527 480.893 292.469 481.156 294.385C481.427 296.31 481.816 298.175 482.342 299.989C482.867 301.803 483.51 303.523 484.273 305.15C485.027 306.777 485.891 308.293 486.865 309.672C487.83 311.061 488.881 312.296 490.024 313.386C491.159 314.476 492.362 315.396 493.624 316.145C494.886 316.895 496.19 317.465 497.537 317.848C498.875 318.232 500.231 318.419 501.603 318.419C502.967 318.419 504.322 318.232 505.669 317.848C507.007 317.465 508.311 316.895 509.573 316.145C510.844 315.396 512.047 314.476 513.182 313.386C514.317 312.296 515.375 311.061 516.341 309.672C517.307 308.293 518.171 306.777 518.933 305.15C519.695 303.523 520.331 301.803 520.856 299.989C521.381 298.175 521.779 296.31 522.042 294.385C522.313 292.469 522.448 290.527 522.448 288.568C522.448 286.601 522.313 284.659 522.042 282.743C521.779 280.818 521.381 278.953 520.856 277.139C520.331 275.325 519.695 273.605 518.933 271.978C518.171 270.351 517.307 268.844 516.341 267.455C515.375 266.067 514.317 264.832 513.182 263.742C512.047 262.652 510.844 261.732 509.573 260.983C508.311 260.233 507.007 259.663 505.669 259.28Z" fill="black"/>
</svg>
